<?xml version="1.0" standalone="no"?><!DOCTYPE svg PUBLIC "-//W3C//DTD SVG 1.1//EN" "http://www.w3.org/Graphics/SVG/1.1/DTD/svg11.dtd"><svg t="1744966103551" class="icon" viewBox="0 0 1024 1024" version="1.1" xmlns="http://www.w3.org/2000/svg" p-id="2635" xmlns:xlink="http://www.w3.org/1999/xlink" width="200" height="200"><path d="M512 32c265.088 0 480 214.912 480 480 0 265.088-214.912 480-480 480-265.088 0-480-214.912-480-480C32 246.912 246.912 32 512 32z m0 64C282.24 96 96 282.24 96 512s186.24 416 416 416 416-186.24 416-416S741.76 96 512 96z m16 304a32 32 0 0 1 31.776 28.256l0.224 3.744v312.256a32 32 0 0 1-63.776 3.744l-0.224-3.744V464h-32a32 32 0 0 1-31.776-28.256L432 432a32 32 0 0 1 28.256-31.776l3.744-0.224h64zM512 256a48 48 0 1 1 0 96 48 48 0 0 1 0-96z" fill="#101D37" p-id="2636"></path></svg>